<svg
    id="visual"
    viewBox="0 0 960 540"
    width="960"
    height="540"
    xmlns="http://www.w3.org/2000/svg"
    version="1.1"
>
    <rect x="0" y="0" width="960" height="540" fill="#FFFFFF00"></rect>
    <path
    d="M0 342L22.8 349C45.7 356 91.3 370 137 370.2C182.7 370.3 228.3 356.7 274 357.7C319.7 358.7 365.3 374.3 411.2 372C457 369.7 503 349.3 548.8 342.7C594.7 336 640.3 343 686 351.8C731.7 360.7 777.3 371.3 823 371.3C868.7 371.3 914.3 360.7 937.2 355.3L960 350L960 541L937.2 541C914.3 541 868.7 541 823 541C777.3 541 731.7 541 686 541C640.3 541 594.7 541 548.8 541C503 541 457 541 411.2 541C365.3 541 319.7 541 274 541C228.3 541 182.7 541 137 541C91.3 541 45.7 541 22.8 541L0 541Z"
    fill="#4facf7"
    ></path>
    <path
    d="M0 377L22.8 376.5C45.7 376 91.3 375 137 381.5C182.7 388 228.3 402 274 400C319.7 398 365.3 380 411.2 371.8C457 363.7 503 365.3 548.8 371.3C594.7 377.3 640.3 387.7 686 391.7C731.7 395.7 777.3 393.3 823 391.3C868.7 389.3 914.3 387.7 937.2 386.8L960 386L960 541L937.2 541C914.3 541 868.7 541 823 541C777.3 541 731.7 541 686 541C640.3 541 594.7 541 548.8 541C503 541 457 541 411.2 541C365.3 541 319.7 541 274 541C228.3 541 182.7 541 137 541C91.3 541 45.7 541 22.8 541L0 541Z"
    fill="#2b9dfc"
    ></path>
    <path
    d="M0 416L22.8 417.2C45.7 418.3 91.3 420.7 137 419.7C182.7 418.7 228.3 414.3 274 411.7C319.7 409 365.3 408 411.2 415.2C457 422.3 503 437.7 548.8 440.2C594.7 442.7 640.3 432.3 686 430.8C731.7 429.3 777.3 436.7 823 437.8C868.7 439 914.3 434 937.2 431.5L960 429L960 541L937.2 541C914.3 541 868.7 541 823 541C777.3 541 731.7 541 686 541C640.3 541 594.7 541 548.8 541C503 541 457 541 411.2 541C365.3 541 319.7 541 274 541C228.3 541 182.7 541 137 541C91.3 541 45.7 541 22.8 541L0 541Z"
    fill="#008cff"
    ></path>
    <path
    d="M0 487L22.8 486.8C45.7 486.7 91.3 486.3 137 481.5C182.7 476.7 228.3 467.3 274 465C319.7 462.7 365.3 467.3 411.2 470C457 472.7 503 473.3 548.8 469.5C594.7 465.7 640.3 457.3 686 459.3C731.7 461.3 777.3 473.7 823 473C868.7 472.3 914.3 458.7 937.2 451.8L960 445L960 541L937.2 541C914.3 541 868.7 541 823 541C777.3 541 731.7 541 686 541C640.3 541 594.7 541 548.8 541C503 541 457 541 411.2 541C365.3 541 319.7 541 274 541C228.3 541 182.7 541 137 541C91.3 541 45.7 541 22.8 541L0 541Z"
    fill="#007aff"
    ></path>
    <path
    d="M0 489L22.8 489.3C45.7 489.7 91.3 490.3 137 488C182.7 485.7 228.3 480.3 274 481.2C319.7 482 365.3 489 411.2 495C457 501 503 506 548.8 504.7C594.7 503.3 640.3 495.7 686 489.7C731.7 483.7 777.3 479.3 823 481.5C868.7 483.7 914.3 492.3 937.2 496.7L960 501L960 541L937.2 541C914.3 541 868.7 541 823 541C777.3 541 731.7 541 686 541C640.3 541 594.7 541 548.8 541C503 541 457 541 411.2 541C365.3 541 319.7 541 274 541C228.3 541 182.7 541 137 541C91.3 541 45.7 541 22.8 541L0 541Z"
    fill="#0066ff"
    ></path>
</svg>