<svg width="24" height="24" viewBox="0 0 24 24" fill="none" xmlns="http://www.w3.org/2000/svg"><path d="M19.845 9.933H19.2V9.9H12v3.2h4.521A4.798 4.798 0 0 1 7.2 11.5 4.8 4.8 0 0 1 12 6.7c1.224 0 2.337.462 3.184 1.216l2.263-2.263A7.963 7.963 0 0 0 12 3.5a8 8 0 1 0 7.845 6.433Z" fill="#FFC107"/><path d="M4.922 7.776 7.55 9.704A4.798 4.798 0 0 1 12 6.7c1.223 0 2.336.462 3.184 1.216l2.263-2.263A7.963 7.963 0 0 0 12 3.5a7.995 7.995 0 0 0-7.078 4.276Z" fill="#FF3D00"/><path d="M12 19.5c2.066 0 3.944-.79 5.364-2.076l-2.476-2.096A4.764 4.764 0 0 1 12 16.3a4.798 4.798 0 0 1-4.513-3.178l-2.61 2.01A7.994 7.994 0 0 0 12 19.5Z" fill="#4CAF50"/><path d="M19.831 9.9H12v3.2h4.521a4.816 4.816 0 0 1-1.635 2.228h.002l2.476 2.095C17.188 17.583 20 15.5 20 11.5a8.4 8.4 0 0 0-.169-1.6Z" fill="#1976D2"/></svg>